# xmcd CD database file
#
# Track frame offsets:
#	150
#	25299
#	50083
#	66460
#	92800
#	113523
#	128423
#	155531
#	185317
#	203853
#	228004
#	261693
#
# Disc length: 3666 seconds
#
# Revision: 0
# Processed by: cddbd v1.5.2PL0 Copyright (c) Steve Scherf et al.
# Submitted via: CDex 1.70beta2
#
DISCID=a40e500c
DTITLE=Paolo Fresu - Alma (Featuring Jacques Morelenbaum)
DYEAR=2012
DGENRE=Jazz
TTITLE0=S'inguldu
TTITLE1=Inverno grigio
TTITLE2=No trance
TTITLE3=Alma
TTITLE4=Angustia
TTITLE5=Crepuscolo
TTITLE6=Moon on the sky
TTITLE7=Old D Blues
TTITLE8=Ninos
TTITLE9=Nenia
TTITLE10=Under African Skies
TTITLE11=Rimanere grande!
EXTD=YEAR: 2012
EXTT0=
EXTT1=
EXTT2=
EXTT3=
EXTT4=
EXTT5=
EXTT6=
EXTT7=
EXTT8=
EXTT9=
EXTT10=
EXTT11=
PLAYORDER=
